<?xml version="1.0" encoding="utf-8"?>
<!-- Generator: Adobe Illustrator 23.0.2, SVG Export Plug-In . SVG Version: 6.00 Build 0)  -->
<svg version="1.1" id="emoji" xmlns="http://www.w3.org/2000/svg" xmlns:xlink="http://www.w3.org/1999/xlink" x="0px" y="0px"
	 viewBox="0 0 72 72" style="enable-background:new 0 0 72 72;" xml:space="preserve">
<style type="text/css">
	.st0{fill:none;stroke:#FFFFFF;stroke-miterlimit:10;}
	.st1{fill:none;stroke:#FFFFFF;stroke-width:2;stroke-linecap:round;stroke-linejoin:round;stroke-miterlimit:10;}
	.st2{fill:#FFFFFF;}
</style>
<g id="_xD83D__xDE00_">
	<circle class="st0" cx="36.3" cy="36.7" r="23"/>
	<path class="st1" d="M50.4,44.7"/>
	<path class="st1" d="M22.3,44.7"/>
	<circle class="st1" cx="36.3" cy="36.7" r="23"/>
	<path class="st1" d="M20.5,40.4c0,0,15.5,0,31.6,0.1"/>
	<path class="st1" d="M22.3,44.7"/>
	<path class="st1" d="M20.5,40.4C22.8,47,29,51.8,36.3,51.8c7.4,0,13.6-4.8,15.8-11.4"/>
	<path class="st2" d="M31.9,33.6c-0.4,0-0.7-0.2-0.9-0.6c0,0-1.2-2.3-3.4-2.3S24.2,33,24.2,33c-0.2,0.5-0.8,0.7-1.3,0.4
		c-0.5-0.2-0.7-0.8-0.4-1.3c0.1-0.1,1.8-3.4,5.2-3.4s5.1,3.3,5.2,3.4c0.2,0.5,0,1.1-0.4,1.3C32.2,33.5,32,33.6,31.9,33.6z"/>
	<path class="st2" d="M49.1,33.6c-0.4,0-0.7-0.2-0.9-0.6c0,0-1.2-2.3-3.4-2.3S41.4,33,41.4,33c-0.2,0.5-0.8,0.7-1.3,0.4
		c-0.5-0.2-0.7-0.8-0.4-1.3c0.1-0.1,1.8-3.4,5.2-3.4S50,32,50,32.1c0.2,0.5,0,1.1-0.4,1.3C49.4,33.5,49.3,33.6,49.1,33.6z"/>
</g>
</svg>
