<svg xmlns="http://www.w3.org/2000/svg" width="165.21mm" height="187.41mm" viewBox="0 0 468.32 531.25">
  <defs>
    <style>
      .a {
        fill: #fff;
      }
    </style>
  </defs>
  <title>iDi_Logo_white_rgb</title>
  <g>
    <path class="a" d="M210.8,72.07c0-29.91,22-40.15,38.58-40.15,29.13,0,54.33,29.92,54.33,62.2,0,27.55-18.9,45.67-39.37,45.67C236,139.79,210.8,106.72,210.8,72.07Z" transform="translate(-210.8 -31.92)"/>
    <path class="a" d="M248.59,524C243.08,479.12,225,288.59,225,266.55c0-38.59,3.94-70.86,33.07-70.86,23.62,0,45.67,21.25,45.67,52,0,52.75-2.37,202.35-2.37,248.8,0,40.15-7.87,54.33-26.77,54.33C257.25,550.78,251,542.9,248.59,524Z" transform="translate(-210.8 -31.92)"/>
    <path class="a" d="M336.6,195.7c2.67-27.33,23.72-34.72,38.82-33.24,26.62,2.6,47,32.18,44.09,61.67-2.46,25.17-21.34,40-40,38.21C353.57,259.81,333.51,227.35,336.6,195.7Z" transform="translate(-210.8 -31.92)"/>
    <path class="a" d="M339.66,521.13c-2.29-28.51-7.21-149.11-5.87-162.88,2.36-24.09,7.92-43.9,34.54-41.3,21.57,2.11,40.42,17.35,38.55,36.53-3.22,32.94-14.51,126.14-17.34,155.15-2.45,25.08-10.51,33.22-27.77,31.54C346,538.62,340.67,533.14,339.66,521.13Z" transform="translate(-210.8 -31.92)"/>
    <path class="a" d="M248.59,524c2.25,20.41,11.86,30.14,22.91,32.07l.05.06c32.42,6.64,54.74,7,102.23,7,101.24,0,180.79-26,230-75.26,49.29-48.5,75.34-118.64,75.34-202.85,0-79.66-24.9-142.88-74-187.84C559.08,54.25,492,32.93,400.41,32v-.09H380.34a32.65,32.65,0,0,0-32.66,32.65h0a32.66,32.66,0,0,0,32.64,32.66h17c66.38,0,117.4,17.48,151.63,51.93,32.37,32.57,48.6,79,48.23,138.16,0,135.27-74.77,209.76-210.52,209.76-19.39,0-97.44-1.63-141.9-8Z" transform="translate(-210.8 -31.92)"/>
    <path class="a" d="M252,533" transform="translate(-210.8 -31.92)"/>
  </g>
</svg>
