<svg xmlns="http://www.w3.org/2000/svg" width="165.21mm" height="187.41mm" viewBox="0 0 468.32 531.25">
  <defs>
    <style>
      .a {
        fill: #7ebd69;
      }

      .b {
        fill: #fff;
      }
    </style>
  </defs>
  <title>iDi_logo_white_green</title>
  <g>
    <path class="a" d="M186.49,72.07c0-29.91,22-40.15,38.59-40.15,29.12,0,54.32,29.92,54.32,62.2,0,27.55-18.9,45.67-39.37,45.67C211.69,139.79,186.49,106.72,186.49,72.07Z" transform="translate(-186.49 -31.92)"/>
    <path class="a" d="M224.29,524c-5.51-44.88-23.63-235.41-23.63-257.45,0-38.59,3.94-70.86,33.07-70.86,23.62,0,45.67,21.25,45.67,52C279.4,300.4,277,450,277,496.45c0,40.15-7.87,54.33-26.77,54.33C233,550.78,226.65,542.9,224.29,524Z" transform="translate(-186.49 -31.92)"/>
    <path class="b" d="M312.3,195.7C315,168.37,336,161,351.12,162.46c26.62,2.6,47,32.18,44.08,61.67-2.45,25.17-21.34,40-40,38.21C329.27,259.81,309.2,227.35,312.3,195.7Z" transform="translate(-186.49 -31.92)"/>
    <path class="b" d="M315.36,521.13c-2.3-28.51-7.22-149.11-5.87-162.88,2.35-24.09,7.92-43.9,34.53-41.3,21.58,2.11,40.42,17.35,38.55,36.53-3.22,32.94-14.51,126.14-17.34,155.15-2.45,25.08-10.5,33.22-27.76,31.54C321.64,538.62,316.36,533.14,315.36,521.13Z" transform="translate(-186.49 -31.92)"/>
    <path class="b" d="M224.29,524c2.25,20.41,11.85,30.14,22.9,32.07l.05.06c32.43,6.64,54.75,7,102.23,7,101.24,0,180.79-26,230-75.26,49.28-48.5,75.33-118.64,75.33-202.85,0-79.66-24.89-142.88-73.95-187.84C534.78,54.25,467.71,32.93,376.1,32v-.09H356a32.65,32.65,0,0,0-32.65,32.65h0A32.66,32.66,0,0,0,356,97.23h17c66.39,0,117.41,17.48,151.64,51.93,32.36,32.57,48.59,79,48.22,138.16,0,135.27-74.76,209.76-210.52,209.76-19.39,0-97.44-1.63-141.89-8Z" transform="translate(-186.49 -31.92)"/>
    <path class="a" d="M227.72,533" transform="translate(-186.49 -31.92)"/>
  </g>
</svg>
